<svg width="150" height="22" viewBox="0 0 150 22" fill="none" xmlns="http://www.w3.org/2000/svg">
<g opacity="0.699997">
<path d="M10.9267 18.6877C9.47829 20.1017 7.44518 21.067 7.35935 21.1072L6.2085 21.6489L6.7923 20.5193C7.16899 19.7908 7.19876 19.0707 7.22994 18.308C7.27017 17.3249 7.31149 16.3105 8.0354 15.1729C8.48502 14.4648 8.98709 13.8888 9.51368 13.4764L9.6434 13.375L10.2125 13.9754L10.1043 14.0994C9.88908 14.3468 9.68827 14.6187 9.48923 14.9311C8.89069 15.8711 8.85615 16.728 8.81904 17.636C8.79955 18.1136 8.77924 18.6041 8.67349 19.1098C9.26866 18.7637 10.0096 18.2835 10.6696 17.7145L10.7977 17.6032L11.3858 18.2016L11.2724 18.3281C11.1622 18.4508 11.0467 18.5706 10.9267 18.6877Z" fill="#29294C"/>
</g>
<g opacity="0.800003">
<path d="M6.11963 16.3809L5.95011 16.3891C3.79438 16.4936 1.32614 15.6038 1.22173 15.5661L0.0253906 15.1302L1.2408 14.749C2.0234 14.5043 2.55574 14.0175 3.12004 13.5026C3.84622 12.8396 4.59673 12.1544 5.91392 11.8697C6.74366 11.6894 7.49924 11.641 8.15958 11.7266L8.32206 11.7481L8.29645 12.5734L8.13299 12.5845C7.79933 12.6064 7.4647 12.6545 7.10898 12.7321C6.0187 12.9677 5.3855 13.546 4.71489 14.1584C4.36161 14.4812 3.99966 14.8118 3.56605 15.0924C4.23134 15.2711 5.09372 15.4602 5.96331 15.5284L6.13228 15.5416L6.11963 16.3809Z" fill="#29294C"/>
</g>
<g opacity="0.5">
<path d="M21.6627 15.6152L20.523 15.0392C19.79 14.6677 19.0682 14.644 18.3033 14.6188C17.32 14.5869 16.3043 14.5539 15.1601 13.8407C14.4441 13.3914 13.8679 12.8995 13.4496 12.3773L13.3467 12.2492L13.9404 11.6726L14.0655 11.7793C14.3208 11.9962 14.5946 12.1944 14.9024 12.3849C15.8514 12.9777 16.7086 13.0055 17.6171 13.0353C18.0951 13.0506 18.5859 13.0668 19.0923 13.1687C18.7385 12.5747 18.2503 11.8359 17.6761 11.1805L17.5638 11.0531L18.1581 10.4609L18.2853 10.573C19.8956 11.996 21.0572 14.3661 21.1059 14.4658L21.6627 15.6152Z" fill="#29294C"/>
</g>
<g opacity="0.600006">
<path d="M15.1988 21.8558L14.8061 20.644C14.5527 19.8611 14.0604 19.3315 13.5384 18.771C12.8681 18.0501 12.1758 17.3047 11.877 15.9905C11.6893 15.1706 11.6335 14.4152 11.7099 13.7468L11.7285 13.584L12.555 13.5971L12.5683 13.7603C12.597 14.1106 12.649 14.4459 12.7283 14.7854C12.9754 15.8739 13.5599 16.503 14.1784 17.1682C14.5054 17.52 14.8405 17.8807 15.1259 18.3128C15.2982 17.6449 15.4783 16.7798 15.5383 15.9108L15.5496 15.7418L16.1358 15.6881L16.146 15.8577C16.5753 18.7526 15.6601 20.5501 15.623 20.6545L15.1988 21.8558Z" fill="#29294C"/>
</g>
<path d="M10.736 3.16921C12.1843 1.75518 14.2174 0.789916 14.3033 0.749753L15.4541 0.208008L14.8703 1.33765C14.4936 2.06609 14.4639 2.78628 14.4327 3.54889C14.3925 4.53201 14.3511 5.54642 13.6272 6.68401C13.1776 7.39209 12.6755 7.96813 12.1489 8.38058L12.0192 8.48194L11.4501 7.88151L11.5584 7.75747C11.7735 7.51014 11.9743 7.23823 12.1734 6.92578C12.7719 5.98583 12.8065 5.12895 12.8436 4.22091C12.8631 3.74329 12.8834 3.25283 12.9891 2.74716C12.394 3.09322 11.653 3.57341 10.9931 4.14242L10.8649 4.25374L10.2769 3.65532L10.3903 3.52884C10.5004 3.40609 10.616 3.28633 10.736 3.16921Z" fill="#29294C"/>
<g opacity="0.399994">
<path d="M15.5428 5.4757L15.7123 5.46752C17.868 5.36298 20.3363 6.2528 20.4407 6.29046L21.637 6.72645L20.4216 7.1076C19.639 7.35231 19.1067 7.83916 18.5424 8.35407C17.8162 9.01698 17.0657 9.70226 15.7485 9.98689C14.9187 10.1672 14.1632 10.2156 13.5028 10.13L13.3403 10.1085L13.3659 9.2832L13.5294 9.27208C13.8631 9.25019 14.1977 9.20208 14.5534 9.12451C15.6437 8.8889 16.2769 8.31061 16.9475 7.69819C17.3008 7.37542 17.6628 7.04476 18.0963 6.76417C17.4311 6.58554 16.5687 6.39646 15.6991 6.32818L15.5301 6.31498L15.5428 5.4757Z" fill="#29294C"/>
</g>
<g opacity="0.899994">
<path d="M0 6.24121L1.13967 6.81719C1.8727 7.18875 2.59447 7.21246 3.35947 7.23765C4.34264 7.26957 5.3584 7.30251 6.50253 8.01567C7.21862 8.46505 7.79479 8.95691 8.21305 9.47915L8.31599 9.60728L7.72222 10.1838L7.59721 10.0771C7.34186 9.86025 7.06806 9.66199 6.76026 9.47157C5.81132 8.87878 4.95402 8.8509 4.04561 8.82113C3.56756 8.80579 3.0768 8.78965 2.57039 8.68768C2.92415 9.28169 3.41235 10.0205 3.98655 10.676L4.09885 10.8033L3.50453 11.3955L3.37738 11.2834C1.76706 9.86043 0.605444 7.49037 0.556784 7.39066L0 6.24121Z" fill="#29294C"/>
</g>
<g opacity="0.949997">
<path d="M6.46438 0L6.85709 1.21174C7.11042 1.99471 7.60277 2.52423 8.1247 3.08481C8.79501 3.80567 9.48738 4.5511 9.78613 5.86524C9.97387 6.68519 10.0297 7.44059 9.95327 8.109L9.93468 8.27179L9.10819 8.25871L9.0948 8.09549C9.06612 7.74515 9.01417 7.40984 8.93482 7.07038C8.68772 5.98188 8.10325 5.35278 7.48472 4.68755C7.15779 4.3358 6.82261 3.97506 6.53725 3.54298C6.36492 4.21091 6.18483 5.07597 6.12486 5.94502L6.11355 6.11398L5.5273 6.16766L5.51716 5.99808C5.08788 3.10315 6.00308 1.3057 6.04019 1.20129L6.46438 0Z" fill="#29294C"/>
</g>
<path d="M33.5541 6.51855L29.7396 15.419H27.2602L23.4585 6.51855H26.1795L28.5953 12.3165L31.0619 6.51855H33.5541Z" fill="#29294C"/>
<path d="M40.751 13.6897H36.9875L36.2881 15.4189H33.7197L37.6486 6.51855H40.128L44.0697 15.4189H41.4504L40.751 13.6897ZM40.0136 11.8333L38.8693 8.9852L37.725 11.8333H40.0136Z" fill="#29294C"/>
<path d="M54.2675 6.51855V15.419H52.1949L48.266 10.6763V15.419H45.7993V6.51855H47.8718L51.8007 11.2612V6.51855H54.2675Z" fill="#29294C"/>
<path d="M58.9593 8.51479H56.2256V6.51855H64.1978V8.51479H61.4768V15.419H58.9593V8.51479Z" fill="#29294C"/>
<path d="M71.6744 13.6897H67.9108L67.2115 15.4189H64.6431L68.572 6.51855H71.0514L74.993 15.4189H72.3737L71.6744 13.6897ZM70.937 11.8333L69.7926 8.9852L68.6483 11.8333H70.937Z" fill="#29294C"/>
<path d="M82.5588 10.7773H84.7838V14.4646C83.7539 15.202 82.3426 15.5963 81.0457 15.5963C78.2103 15.5963 76.1377 13.6763 76.1377 10.968C76.1377 8.25979 78.2103 6.33984 81.0965 6.33984C82.7622 6.33984 84.11 6.91204 84.9874 7.96734L83.3852 9.41682C82.7749 8.74291 82.0756 8.42503 81.2237 8.42503C79.6979 8.42503 78.6807 9.42954 78.6807 10.968C78.6807 12.4684 79.6979 13.511 81.1983 13.511C81.6687 13.511 82.1138 13.422 82.5588 13.2186V10.7773Z" fill="#29294C"/>
<path d="M94.5495 13.4735V15.4189H87.4038V6.51855H94.3843V8.46387H89.896V9.96422H93.8504V11.846H89.896V13.4735H94.5495Z" fill="#29294C"/>
<path d="M97.5884 10.9679C97.5884 8.3359 99.5974 6.41602 102.306 6.41602C103.679 6.41602 104.874 6.88642 105.688 7.80192L104.861 8.60292C104.175 7.87821 103.336 7.54761 102.357 7.54761C100.348 7.54761 98.86 8.9971 98.86 10.9679C98.86 12.9387 100.348 14.3882 102.357 14.3882C103.336 14.3882 104.175 14.0449 104.861 13.3202L105.688 14.1212C104.874 15.0366 103.679 15.5198 102.293 15.5198C99.5974 15.5198 97.5884 13.5999 97.5884 10.9679Z" fill="#29294C"/>
<rect x="109.032" y="6.51855" width="1.27153" height="8.90041" fill="#29294C"/>
<path d="M119.687 15.419L117.767 12.6852C117.589 12.698 117.399 12.7107 117.208 12.7107H115.008V15.419H113.737V6.51855H117.208C119.522 6.51855 120.921 7.6883 120.921 9.62097C120.921 10.9942 120.209 11.9859 118.963 12.431L121.073 15.419H119.687ZM119.649 9.62097C119.649 8.3495 118.797 7.62473 117.17 7.62473H115.008V11.6299H117.17C118.797 11.6299 119.649 10.8924 119.649 9.62097Z" fill="#29294C"/>
<path d="M123.019 10.9679C123.019 8.3359 125.028 6.41602 127.736 6.41602C129.109 6.41602 130.304 6.88642 131.118 7.80192L130.291 8.60292C129.605 7.87821 128.766 7.54761 127.787 7.54761C125.778 7.54761 124.29 8.9971 124.29 10.9679C124.29 12.9387 125.778 14.3882 127.787 14.3882C128.766 14.3882 129.605 14.0449 130.291 13.3202L131.118 14.1212C130.304 15.0366 129.109 15.5198 127.723 15.5198C125.028 15.5198 123.019 13.5999 123.019 10.9679Z" fill="#29294C"/>
<path d="M134.462 6.51855H135.733V14.3127H140.552V15.419H134.462V6.51855Z" fill="#29294C"/>
<path d="M150 14.3127V15.419H143.541V6.51855H149.822V7.62473H144.812V10.3584H149.275V11.4392H144.812V14.3127H150Z" fill="#29294C"/>
</svg>
